<?xml version="1.0" encoding="UTF-8"?>
<!DOCTYPE svg PUBLIC "-//W3C//DTD SVG 1.1//EN" "http://www.w3.org/Graphics/SVG/1.1/DTD/svg11.dtd">
<!-- Creator: CorelDRAW X6 -->
<svg xmlns="http://www.w3.org/2000/svg" xml:space="preserve" width="15.5354mm" height="15.494mm" version="1.1" style="shape-rendering:geometricPrecision; text-rendering:geometricPrecision; image-rendering:optimizeQuality; fill-rule:evenodd; clip-rule:evenodd"
viewBox="0 0 1488 1484"
 xmlns:xlink="http://www.w3.org/1999/xlink">
 <defs>
  <style type="text/css">
   <![CDATA[
    .fil0 {fill:#5F5D5D}
    .fil1 {fill:#FEFEFE;fill-rule:nonzero}
   ]]>
  </style>
 </defs>
 <g id="图层_x0020_1">
  <metadata id="CorelCorpID_0Corel-Layer"/>
  <rect class="fil0" width="1488" height="1484" rx="158" ry="160"/>
  <g id="_438455408">
   <path class="fil1" d="M747 503c31,0 60,-13 80,-34 21,-20 33,-49 33,-80 0,-32 -12,-60 -33,-81 -20,-20 -49,-33 -80,-33 -32,0 -60,13 -81,33 -20,21 -33,49 -33,81 0,31 13,60 33,80 21,21 49,34 81,34zm123 10c-31,31 -75,51 -123,51 -49,0 -92,-20 -124,-51 -32,-32 -51,-76 -51,-124 0,-49 19,-92 51,-124 32,-32 75,-51 124,-51 48,0 92,19 123,51 32,32 52,75 52,124 0,48 -20,92 -52,124z"/>
   <path class="fil1" d="M371 1127c31,0 60,-13 80,-34 21,-20 34,-49 34,-80 0,-31 -13,-60 -34,-81 -20,-20 -49,-33 -80,-33 -32,0 -60,13 -81,33 -20,21 -33,50 -33,81 0,31 13,60 33,80 21,21 49,34 81,34zm124 10c-32,31 -76,51 -124,51 -49,0 -92,-20 -124,-51 -32,-32 -51,-76 -51,-124 0,-48 19,-92 51,-124 32,-32 75,-51 124,-51 48,0 92,19 124,51 31,32 51,76 51,124 0,48 -20,92 -51,124z"/>
   <path class="fil1" d="M1117 1127c31,0 60,-13 80,-34 21,-20 34,-49 34,-80 0,-31 -13,-60 -34,-81 -20,-20 -49,-33 -80,-33 -31,0 -60,13 -81,33 -20,21 -33,50 -33,81 0,31 13,60 33,80 21,21 50,34 81,34zm124 10c-32,31 -76,51 -124,51 -48,0 -92,-20 -124,-51 -32,-32 -51,-76 -51,-124 0,-48 19,-92 51,-124 32,-32 76,-51 124,-51 48,0 92,19 124,51 31,32 51,76 51,124 0,48 -20,92 -51,124z"/>
   <path class="fil1" d="M899 384c90,32 166,91 220,168 53,74 84,164 84,262 0,11 -1,22 -2,34 -1,12 -2,23 -4,34l-5 37 -35 -13c-7,-2 -13,-4 -20,-5l0 0c-6,-1 -13,-2 -20,-2 -31,0 -60,13 -81,33 -20,21 -33,50 -33,81 0,19 5,36 12,51 8,16 20,30 35,41l30 22 -28 25c-41,37 -89,67 -142,88 -51,19 -106,30 -163,30 -58,0 -114,-11 -166,-31 -53,-21 -101,-51 -143,-89l-26 -25 28 -22c14,-11 25,-24 33,-40 7,-15 12,-32 12,-50 0,-31 -13,-60 -34,-81 -20,-20 -49,-33 -80,-33 -7,0 -13,1 -18,1l0 0c-6,1 -12,3 -18,5l-34 11 -5 -36c-2,-11 -3,-22 -4,-33 -1,-11 -1,-22 -1,-33 0,-98 31,-188 83,-262 54,-77 130,-136 220,-168l34 -12 6 36c5,27 19,51 39,68 20,17 46,27 74,27 28,0 53,-10 73,-27 20,-17 34,-41 39,-68l6 -36 34 12zm170 203c-40,-57 -95,-104 -160,-133 -11,27 -28,50 -50,69 -30,25 -70,41 -112,41 -43,0 -82,-16 -113,-41 -22,-19 -39,-42 -50,-69 -64,29 -120,76 -160,133 -45,64 -72,142 -72,227 0,9 0,17 1,25 6,-1 12,-1 18,-1 48,0 92,19 124,51 31,32 51,76 51,124 0,27 -7,54 -18,77 -6,13 -14,25 -23,36 29,23 63,42 98,56 45,17 93,27 144,27 50,0 98,-10 141,-26 35,-14 68,-32 97,-55 -9,-11 -18,-23 -24,-36 -12,-24 -19,-51 -19,-79 0,-48 19,-92 51,-124 32,-32 76,-51 124,-51 8,0 16,0 23,1 1,-8 1,-16 1,-25 0,-85 -26,-163 -72,-227z"/>
  </g>
 </g>
</svg>
