<?xml version="1.0" encoding="UTF-8"?>
<!DOCTYPE svg PUBLIC "-//W3C//DTD SVG 1.1//EN" "http://www.w3.org/Graphics/SVG/1.1/DTD/svg11.dtd">
<!-- Creator: CorelDRAW X6 -->
<svg xmlns="http://www.w3.org/2000/svg" xml:space="preserve" width="15.5786mm" height="15.5372mm" version="1.1" style="shape-rendering:geometricPrecision; text-rendering:geometricPrecision; image-rendering:optimizeQuality; fill-rule:evenodd; clip-rule:evenodd"
viewBox="0 0 132 132"
 xmlns:xlink="http://www.w3.org/1999/xlink">
 <defs>
  <style type="text/css">
   <![CDATA[
    .fil2 {fill:none;fill-rule:nonzero}
    .fil0 {fill:#5F5D5D}
    .fil1 {fill:#FEFEFE;fill-rule:nonzero}
   ]]>
  </style>
 </defs>
 <g id="图层_x0020_1">
  <metadata id="CorelCorpID_0Corel-Layer"/>
  <rect class="fil0" width="132" height="132" rx="14" ry="14"/>
  <g id="_438451760">
   <path class="fil1" d="M74 36l0 -13 0 -3 2 0 31 0 3 0 -1 3 -6 20 1 1 0 1 0 0 -1 1 -4 15 0 0c-1,1 -2,9 -3,11 0,2 0,4 0,5 0,2 0,4 0,5 0,1 0,1 0,1 1,1 1,1 2,2 0,0 0,1 0,1 1,1 3,2 4,3 0,1 0,3 0,5l0 1c0,1 0,4 -1,6 0,2 0,4 -1,4 0,1 -1,2 -3,3 -2,2 -4,3 -5,3 -1,0 -4,0 -7,0 -2,0 -4,0 -5,0l-1 0 0 0c-3,-1 -9,-2 -14,-2 -2,0 -6,0 -9,1 -3,0 -6,1 -9,1 -3,0 -7,-1 -11,-1 -3,0 -6,-1 -8,-1l0 -1c-5,-1 -6,-1 -6,-5l0 0 0 0 0 0c0,-2 0,-6 2,-8 1,-1 4,-2 6,-3 3,0 6,-1 9,-2 2,0 5,-1 8,-2 4,-2 7,-3 9,-4 2,-2 5,-4 6,-4l0 0 0 0c0,-1 1,-1 1,-1 1,0 2,-1 2,-2 1,0 2,-2 3,-4 0,-1 1,-2 1,-4 1,-3 2,-6 2,-10 1,-3 1,-6 1,-9 1,-6 1,-13 1,-13l0 0 1 -1zm5 -11l0 12 0 1 -1 0 0 0c0,3 0,8 -1,13 0,3 -1,6 -1,9 -1,3 -2,7 -2,10 -1,2 -1,4 -2,5 -1,3 -3,5 -3,6 -1,0 -3,2 -3,2l-1 1 -1 0c0,0 1,-1 0,0l0 0 0 0 0 0 0 0 0 0c-1,0 -3,2 -6,3 -1,2 -5,3 -9,5 -3,1 -7,3 -9,3 -3,0 -6,1 -8,2 -2,1 -4,1 -5,2 -1,1 -1,2 0,4l0 0 0 0 0 0c0,0 0,0 2,1l1 0c1,1 4,1 7,1 3,1 7,1 10,1 2,0 5,0 9,-1 3,0 6,-1 9,-1 5,0 12,2 15,2l0 0 1 0c1,1 3,1 4,1 3,0 5,0 6,0 0,-1 2,-2 4,-3 1,0 1,-1 1,-1 0,0 1,-1 1,-3 0,-2 0,-4 0,-5l0 0 0 -1c0,-1 0,-3 0,-3 0,0 -1,-1 -1,-1l-1 0 -1 -1c0,0 0,-1 -1,-2l0 0 -1 0 0 -1c0,0 -1,-1 -1,-4 0,-1 0,-3 0,-5 1,-2 1,-3 1,-5 0,-3 2,-12 2,-12l0 0 5 -15 0 0 0 -1 0 0 0 0 0 -1 0 -1 5 -17 -25 0zm14 62c0,0 0,0 0,0l0 0 0 0z"/>
   <path class="fil1" d="M76 36c0,0 11,3 14,4 1,0 3,0 3,0 1,0 1,0 1,0 0,0 1,0 1,0 1,0 2,0 2,0l0 0c0,0 1,1 1,1 0,0 0,0 0,0 0,0 0,0 0,0 1,0 1,1 2,1l0 1 0 0c1,0 2,0 2,0l-1 2c0,0 -1,0 -1,0l0 0c-1,0 -1,-1 -1,-1 -1,0 -1,0 -1,0 -1,0 -1,-1 -1,-1l0 0c-1,0 -1,0 -1,-1l-1 0c0,0 0,0 0,0l-1 1 -1 0c0,0 0,0 -4,-1 -3,-1 -13,-3 -14,-3l1 -3zm18 6c0,0 0,0 1,0 0,0 -1,0 -1,0z"/>
   <path class="fil1" d="M64 83c0,0 0,0 0,0 0,0 0,0 0,1 0,0 0,1 0,2l0 0c0,1 -1,2 -2,3 -1,1 -2,2 -3,2 0,1 -1,2 -2,3 -1,0 -1,1 -1,1l0 0c0,0 0,1 1,1 0,1 0,2 0,2l0 0c1,1 2,3 2,3l-1 1 -2 -2 0 0c-1,-1 -1,-2 -2,-3 0,0 0,-1 0,-2l0 0c0,-1 0,-2 1,-3 1,-1 2,-2 3,-3 1,0 1,-1 2,-2 1,-1 2,-1 2,-2l0 0c0,0 0,-1 0,-2 0,0 0,0 0,-1 0,-1 1,-1 1,-1l1 2z"/>
   <path class="fil1" d="M25 99c0,0 2,1 5,2 2,0 6,0 10,1 4,0 7,0 10,0l0 0 0 0 0 0c5,-1 8,-1 13,-2 2,0 4,0 6,0 3,-1 6,-1 7,-1l1 0 1 0 0 1 0 3c0,0 2,3 0,4 -1,0 -2,0 -3,0 -1,0 -2,0 -4,-1 -1,0 -2,0 -4,0 -2,0 -4,0 -5,0 -1,0 -1,0 -2,0 -1,-1 -1,-2 0,-2 0,-1 0,-1 3,-1l3 -1c0,0 1,0 1,0 -1,0 -3,0 -4,1 -4,0 -8,0 -13,1l0 0 0 0 0 0c-3,0 -6,0 -10,0 -4,0 -8,-1 -10,-1 -4,-1 -6,-2 -6,-2l1 -2zm44 3l-1 0c3,0 6,0 8,0l0 -1c-1,1 -4,1 -7,1zm8 3l0 0c0,0 -2,-1 -5,-1 1,0 2,1 3,1 1,0 1,0 1,0 1,0 1,0 1,0z"/>
   <path class="fil1" d="M25 100c0,0 5,2 12,3 4,0 8,0 11,0 3,-1 6,-1 9,-1 3,-1 5,-1 8,-1 3,0 6,0 8,0l4 0 0 2 -4 0c-2,0 -4,0 -8,0 -2,0 -5,1 -8,1 -2,0 -6,1 -9,1 -3,0 -7,0 -11,0 -7,0 -13,-3 -13,-3l1 -2z"/>
   <path class="fil2" d="M64 82c0,0 0,1 0,1l-2 0 -1 0 0 0 0 0 0 0 0 0c0,1 0,2 0,2 0,1 -2,2 -3,3 -1,0 -1,1 -2,1 0,1 -1,1 -2,2 -1,1 -1,2 -1,3 -1,1 0,2 0,3l0 0c0,1 0,2 1,3l0 0c1,1 2,3 2,3l2 -2c0,0 -1,-1 -2,-3l0 0c0,0 -1,-1 -1,-2l0 0c0,0 0,-1 0,-2 0,0 0,-1 1,-1 0,-1 1,-1 2,-2 0,0 1,-1 1,-1 2,-1 3,-3 4,-3 0,-1 1,-3 1,-4l0 0 0 0 0 0m-3 0c0,-1 1,-2 1,-2l2 1"/>
   <path class="fil1" d="M65 82c0,0 -1,1 0,2 0,0 1,2 2,3 1,1 2,3 2,3 1,1 3,3 3,3l2 2 -3 0c0,0 -5,-1 -7,-2 0,0 -1,0 -1,-1 -1,-1 -3,-2 -3,-2l0 -1 1 -1 1 0c0,0 1,1 2,2 1,1 1,1 2,1 0,0 1,1 2,1l0 0c-1,-1 -2,-2 -3,-4 -1,-1 -2,-2 -2,-3 -1,-2 0,-4 0,-4l2 1z"/>
   <path class="fil1" d="M60 89c0,0 3,2 4,3 1,0 3,1 4,1 1,0 3,1 3,1l0 0 1 0 0 2 -1 0 0 0c-1,0 -2,0 -3,-1 -2,0 -3,0 -4,-1 -3,-1 -5,-3 -5,-3l1 -2z"/>
   <path class="fil1" d="M72 93l1 1 5 4 0 1 0 1 0 0 0 3c0,1 0,3 0,3l1 2 -3 0 0 -2 0 0c0,0 0,-2 0,-2l0 -1 0 0 0 -3 0 0 0 0 0 0 -4 -4 0 0 -2 -2 2 -1z"/>
   <path class="fil1" d="M78 99c0,0 4,4 5,5l0 0c1,0 1,1 2,1 1,1 3,3 3,3l0 0c0,0 0,0 0,0l0 0c0,0 0,0 0,0l1 0c1,-1 1,-1 1,-1l0 0c1,-1 1,-1 1,-1l0 0c0,0 1,-1 1,-1 0,0 2,-1 2,-1l1 0 0 0 0 0 0 0c1,-1 2,-1 2,-1 0,0 1,-1 1,-1l1 2c0,0 0,1 -1,1 0,0 -1,1 -2,1l0 0 0 0 0 0c0,0 -1,0 -1,0 -1,1 -1,1 -2,1 0,0 0,0 0,1l0 0c-1,0 -1,0 -1,0l0 0c0,0 -1,2 -1,2l0 0 -1 0 -1 0 0 0c-1,0 -1,0 -1,0l0 0c-1,0 -1,0 -1,0l0 0c-1,0 -2,-2 -4,-3l-1 -1 0 0c-1,-1 -6,-5 -6,-5l2 -2z"/>
   <path class="fil1" d="M97 88c0,0 1,1 1,1l0 0c0,0 0,1 0,1l0 0c0,0 0,0 0,1l0 0c0,0 1,1 1,1l-3 0c0,0 0,-1 0,-1l0 0c0,0 0,0 0,0l0 0c0,-1 0,-1 0,-1l0 0c0,0 -1,-1 -1,-1l2 -1z"/>
   <path class="fil1" d="M100 92c0,0 -1,1 -2,1 -1,0 -2,1 -4,1 -2,1 -3,1 -4,1 -1,1 -3,1 -4,1 -1,0 -2,0 -2,0l2 3c2,1 4,2 4,3l0 0c1,0 3,2 3,2l0 0 0 0c0,0 1,1 1,2l0 0 -3 0 0 0c0,0 0,0 0,0 0,-1 -2,-2 -2,-3l0 0c-1,0 -2,-1 -4,-3 -2,-1 -3,-2 -3,-2l0 0 0 0c-1,-1 -1,-1 -2,-1 -1,-2 1,-2 1,-2l0 -1 0 0 2 0c0,0 1,0 3,0 1,0 2,-1 3,-1 1,0 3,-1 4,-1 2,0 4,-1 4,-1 1,0 2,-1 2,-1l1 2z"/>
   <path class="fil1" d="M82 96l-3 -3 -1 -1 1 -1c0,0 6,-2 8,-2l0 0c0,0 1,-1 2,-1 1,-1 2,-1 3,-2l0 0 0 0 0 0c1,0 1,0 1,-1l0 0c0,0 0,0 0,0l0 1 2 -2c0,0 1,1 0,2l0 0c0,1 -1,2 -2,2l0 0 0 0 0 0c0,1 -2,1 -3,2 -1,1 -2,1 -3,1l0 0 -5 2 2 2 -2 1zm11 -11l0 1 0 0 0 -1 0 0zm0 1l0 -1c0,0 0,1 0,1l0 0z"/>
   <path class="fil1" d="M95 85c0,0 1,1 1,2 0,1 0,1 0,2 1,0 1,0 1,1l0 0c0,0 0,0 0,0l0 0c0,1 0,1 0,1l0 1 -2 0 0 0 0 -1 0 0c0,0 0,0 0,-1l0 0c-1,0 -1,0 -1,-1 0,0 0,-1 0,-1 0,-1 -1,-1 -1,-1l2 -2z"/>
   <path class="fil1" d="M80 92c0,0 5,-1 7,-2 1,0 2,-1 3,-1 0,0 1,-1 1,-1 1,0 1,0 1,-1 1,0 1,0 1,0 1,-1 1,-1 1,-1l1 2c0,0 0,0 0,0 0,0 -1,1 -1,1 0,1 -1,1 -1,1 -1,0 -1,1 -2,1 -1,1 -2,1 -3,1 -3,1 -7,2 -7,2l-1 -2z"/>
   <path class="fil1" d="M79 93l-4 -3 0 -1 0 -1c0,0 2,-2 3,-4 0,0 0,-1 1,-1 1,-2 2,-4 3,-5 0,-1 2,-2 3,-4 2,-3 4,-6 4,-7 1,-1 1,-2 2,-4 0,-1 0,-3 1,-4 0,-2 1,-4 1,-6l0 0 1 -1c0,-2 2,-10 2,-10l2 1c0,0 -2,7 -2,9l0 1 0 0c-1,2 -2,5 -2,6 0,1 -1,3 -1,5 -1,2 -1,3 -2,4 0,1 -2,5 -4,7 -2,2 -3,4 -3,4 -1,1 -2,3 -3,5 -1,1 -1,1 -2,2 0,0 -1,2 -1,3l3 2 -2 2z"/>
   <path class="fil1" d="M95 41c0,0 1,2 0,3 0,1 -1,3 -1,5 0,2 -1,4 -1,5 0,1 -1,2 -1,4l0 0c0,1 0,2 0,3 -1,1 -1,2 -1,4 -1,2 -1,3 -2,4 0,0 -1,2 -2,4 -1,1 -2,2 -2,3l0 0c0,1 -1,2 -2,3 -1,2 -3,4 -3,4 0,1 -1,2 -2,2l1 0c-1,2 -2,3 -2,3l0 0c0,0 -1,1 -1,1l-1 1 0 -1c0,0 -5,-5 -6,-6 0,-1 -1,-1 -1,-2 -1,-1 -1,-1 -1,-2 0,0 0,-1 0,-1l2 -1c0,0 0,1 0,2 0,0 0,0 1,1 0,1 1,1 1,2 0,0 3,3 4,4 1,0 1,-1 2,-2l0 0c0,-1 1,-2 1,-2 1,0 2,-2 3,-4 1,-1 2,-2 2,-3l0 0c0,-1 1,-2 2,-4 1,-1 2,-3 2,-3 1,-1 1,-2 1,-4 1,-1 1,-3 1,-3 0,-1 1,-2 1,-4l0 0c0,-1 1,-3 1,-4 0,-1 0,-2 1,-4 0,-3 1,-5 1,-5 0,-1 0,-2 0,-2l2 -1z"/>
   <path class="fil1" d="M80 96l0 0 0 0 1 -1 0 0 0 1 0 1 -2 2 0 0 -1 0c0,0 -1,0 -2,-1 0,0 0,0 0,0l0 0c-1,-1 -2,-2 -3,-4 0,-1 0,-2 0,-3 0,-1 0,-1 1,-2 0,0 0,-1 0,-1l3 0c0,0 -1,1 -1,2 0,0 0,1 -1,1 0,1 0,2 1,2 0,1 1,2 1,3l0 0c0,0 1,0 1,0 0,0 0,1 0,1l1 -2c0,0 0,-1 1,-1l0 2 0 0zm0 0c0,0 1,-1 1,-1"/>
   <path class="fil1" d="M77 89c0,0 0,1 0,2l0 0 -1 0 0 0c0,0 0,1 0,1 0,0 1,1 1,1l0 0c0,0 0,0 1,0 0,1 0,1 0,1l0 0c1,0 2,0 2,0l0 0c1,0 1,1 1,1l-1 0 -1 1c1,0 1,0 0,0l0 0c0,0 -1,0 -1,0l0 0c-1,0 -1,0 -1,0 -1,-1 -2,-1 -2,-2l0 0c0,0 -1,-1 -1,-1 0,-1 0,-2 0,-3l0 0 0 0 0 0c0,0 1,-2 1,-2l2 1zm3 6l-1 0c0,0 0,1 0,1l1 -1z"/>
  </g>
 </g>
</svg>
