<?xml version="1.0" encoding="UTF-8"?>
<!DOCTYPE svg PUBLIC "-//W3C//DTD SVG 1.1//EN" "http://www.w3.org/Graphics/SVG/1.1/DTD/svg11.dtd">
<!-- Creator: CorelDRAW X6 -->
<svg xmlns="http://www.w3.org/2000/svg" xml:space="preserve" width="15.539mm" height="15.4977mm" version="1.1" style="shape-rendering:geometricPrecision; text-rendering:geometricPrecision; image-rendering:optimizeQuality; fill-rule:evenodd; clip-rule:evenodd"
viewBox="0 0 232 232"
 xmlns:xlink="http://www.w3.org/1999/xlink">
 <defs>
  <style type="text/css">
   <![CDATA[
    .fil0 {fill:#5F5D5D}
    .fil1 {fill:#FEFEFE}
   ]]>
  </style>
 </defs>
 <g id="图层_x0020_1">
  <metadata id="CorelCorpID_0Corel-Layer"/>
  <rect class="fil0" width="232" height="232" rx="25" ry="25"/>
  <path class="fil1" d="M134 106c0,0 11,-15 23,-26 6,-6 18,-10 23,-12l0 -5c-5,-2 -18,-8 -33,-9 -14,-1 -31,2 -38,3l6 16c4,-2 13,-6 18,-7 7,-1 24,-2 24,-2l11 0 -10 6c0,0 -13,8 -20,14 -8,6 -16,16 -16,16l-2 3 -3 -3c0,0 -9,-13 -15,-25 -4,-10 -7,-27 -7,-32l-4 -2c-3,4 -11,14 -19,30 -7,16 -9,31 -9,37l18 0c-1,-5 -1,-13 -1,-19 1,-10 5,-23 5,-23l3 -9 2 10c0,0 4,12 8,22 4,9 10,20 10,20l1 3 -3 2c0,0 -15,5 -28,6 -11,1 -28,-1 -33,-2l-2 3c2,4 10,15 23,27 12,12 26,18 32,21l5 -18c-4,-1 -13,-3 -18,-5l0 0c-9,-3 -20,-11 -20,-11l-9 -6 11 0c0,0 12,1 23,0 10,-1 23,-4 23,-4l4 0 0 3c0,0 0,19 -4,35 -1,8 -8,19 -11,24l3 3c5,-1 19,-4 31,-12 12,-8 24,-20 29,-25l-14 -9c-2,4 -7,12 -10,16 -5,5 -18,15 -18,15l-9 7 4 -10c0,0 6,-14 8,-24 3,-9 4,-22 4,-22l0 -4 3 2c0,0 16,4 27,11 10,5 22,17 26,21l4 -1c0,-5 0,-18 -3,-35 -4,-17 -11,-31 -15,-36l-14 11c3,4 9,10 12,15 5,8 9,21 9,21l4 9 -8 -6c0,0 -10,-8 -19,-13 -9,-6 -21,-11 -21,-11l-4 -1 3 -3z"/>
 </g>
</svg>
