<?xml version="1.0" encoding="UTF-8"?>
<!DOCTYPE svg PUBLIC "-//W3C//DTD SVG 1.1//EN" "http://www.w3.org/Graphics/SVG/1.1/DTD/svg11.dtd">
<!-- Creator: CorelDRAW X6 -->
<svg xmlns="http://www.w3.org/2000/svg" xml:space="preserve" width="15.539mm" height="15.4977mm" version="1.1" style="shape-rendering:geometricPrecision; text-rendering:geometricPrecision; image-rendering:optimizeQuality; fill-rule:evenodd; clip-rule:evenodd"
viewBox="0 0 94 93"
 xmlns:xlink="http://www.w3.org/1999/xlink">
 <defs>
  <style type="text/css">
   <![CDATA[
    .fil0 {fill:#5F5D5D}
    .fil4 {fill:#FEFEFE}
    .fil1 {fill:#FEFEFE;fill-rule:nonzero}
    .fil3 {fill:#5F5D5D;fill-rule:nonzero}
    .fil2 {fill:#FEFEFE;fill-rule:nonzero}
   ]]>
  </style>
 </defs>
 <g id="图层_x0020_1">
  <metadata id="CorelCorpID_0Corel-Layer"/>
  <rect class="fil0" width="93.6575" height="93.4086" rx="10" ry="10"/>
  <polygon class="fil1" points="10,56 47,56 47,38 10,38 "/>
  <path class="fil1" d="M49 56l37 0 0 -14 -1 0 0 0 -1 0 -1 0c0,0 0,0 0,1l0 0c0,0 0,0 0,1l0 0 0 0 0 0 1 1 0 1 0 0 -1 1 -3 3 0 0 -1 1 0 0 -1 0 0 -1 -1 -1 0 1c-1,0 -1,0 -1,0 0,0 -1,0 -1,0l0 0 0 0 0 1 0 1 0 0 -1 0 -1 0 -5 0 -1 0 0 0 0 0 0 -1 0 -1 -1 0c0,0 0,0 0,0 -1,0 -1,0 -1,-1l0 0 -1 1 -1 1 0 0 -1 0 0 -1 -4 -3 0 -1 -1 0 1 -1 0 0 0 0 1 -1 0 0c0,-1 0,-1 0,-1l-1 0 0 0c0,-1 0,-1 0,-1l0 0 0 0 -1 0 -1 0 -1 0 0 -1 0 -1 0 -2 -6 0 0 18z"/>
  <path class="fil1" d="M33 30l3 0 0 -6 23 0 0 -3 -26 0 0 9zm-6 -14l37 0 0 10 0 -1 -1 -1 0 0 -1 0 0 1 -4 3 0 1 -1 1 1 0 0 1 1 0 0 1c0,0 0,0 -1,1 0,0 0,0 0,0l0 1 -1 0 -1 0 -1 0 0 0 0 1 0 0 -28 0 0 -19z"/>
  <path class="fil1" d="M35 64l26 0 0 9 -3 0 0 -6 -23 0 0 -3zm-6 14l37 0 0 -19 -37 0 0 19z"/>
  <path class="fil2" d="M81 35c0,-1 -1,-2 -1,-3l1 -2 -3 -3 -1 2c-2,-1 -3,-1 -4,-2l0 -1 -5 0 0 1c-1,1 -2,1 -3,2l-1 -2 -4 3 2 2c-1,1 -1,2 -2,3l-2 0 0 5 2 0c1,1 1,2 2,3l-1 2 3 3 1 -2c1,1 2,2 3,2l0 2 5 0 0 -2c1,0 2,-1 3,-2l2 2 3 -3 -1 -2c0,-1 1,-2 1,-3l2 0 0 -5 -2 0z"/>
  <path class="fil3" d="M71 46c4,0 8,-4 8,-8 0,-5 -4,-9 -8,-9 -5,0 -9,4 -9,9 0,4 4,8 9,8z"/>
  <path class="fil4" d="M68 42l0 1c0,0 0,0 0,0l5 0c0,0 0,0 0,0 0,0 0,-1 0,-1 0,-1 0,0 0,0l-5 0c0,0 0,0 0,0zm2 -6c0,1 0,1 0,1 -2,0 -5,0 -7,0 0,0 0,0 0,0l0 1c0,0 0,0 0,0l15 0c0,0 0,0 0,0l0 -1c0,0 -3,0 -3,0l-3 0c0,0 0,0 0,0l0 -6c0,0 0,0 0,0l-2 0 0 5zm-4 3l0 2c0,0 0,0 0,0l9 0c0,0 0,0 0,0 0,0 0,-2 0,-2 0,0 0,0 0,0l-9 0c0,0 0,0 0,0z"/>
 </g>
</svg>
