<?xml version="1.0" encoding="UTF-8"?>
<!DOCTYPE svg PUBLIC "-//W3C//DTD SVG 1.1//EN" "http://www.w3.org/Graphics/SVG/1.1/DTD/svg11.dtd">
<!-- Creator: CorelDRAW X6 -->
<svg xmlns="http://www.w3.org/2000/svg" xml:space="preserve" width="15.539mm" height="15.4977mm" version="1.1" style="shape-rendering:geometricPrecision; text-rendering:geometricPrecision; image-rendering:optimizeQuality; fill-rule:evenodd; clip-rule:evenodd"
viewBox="0 0 111 111"
 xmlns:xlink="http://www.w3.org/1999/xlink">
 <defs>
  <style type="text/css">
   <![CDATA[
    .fil0 {fill:#5F5D5D}
    .fil1 {fill:#FEFEFE}
   ]]>
  </style>
 </defs>
 <g id="图层_x0020_1">
  <metadata id="CorelCorpID_0Corel-Layer"/>
  <rect class="fil0" width="111" height="111" rx="12" ry="12"/>
  <path class="fil1" d="M51 30c0,0 -1,0 -1,-1 0,-1 0,-2 0,-3l0 0 0 0c0,0 0,0 0,0 -1,-5 0,-7 2,-9 3,-2 9,-3 12,0 2,1 3,4 3,8 0,1 0,1 0,1l0 0 0 0c0,1 0,2 0,3 0,1 -1,1 -1,1 -1,3 -4,6 -7,6 0,0 -1,0 -2,0 -3,-1 -5,-2 -6,-6zm-5 8c1,0 3,0 4,0 1,0 2,0 2,-1l5 10 1 -7 -1 0 0 -1 4 0 0 1 -1 0 1 6 4 -9c1,0 1,1 2,0 2,0 3,0 4,0 3,3 5,12 5,17l11 0 0 8 -4 0 0 34 -8 0 0 -34 -37 0 0 34 -7 0 0 -34 -7 0 0 -8 17 0c0,-5 1,-13 5,-16l0 0z"/>
  <path class="fil1" d="M53 84l0 2c0,0 0,0 0,0l6 0c0,0 0,0 0,0 0,0 0,-1 0,-2 0,0 0,0 0,0l-6 0c0,0 0,0 0,0zm2 -6c0,0 0,0 0,1 -2,0 -5,0 -7,0 -1,0 0,0 0,0l0 1c0,0 -1,0 0,0l17 0c0,0 0,0 1,0l0 -1c-1,0 -4,0 -5,0l-3 0c0,0 0,0 0,-1l0 -6c0,0 0,0 -1,0l-2 0 0 6zm-4 3l0 2c0,0 0,0 0,0l11 0c0,0 0,0 0,0 0,0 0,-1 0,-1 0,-1 0,-1 0,-1l-11 0c0,0 0,0 0,0z"/>
 </g>
</svg>
