<?xml version="1.0" encoding="UTF-8"?>
<!DOCTYPE svg PUBLIC "-//W3C//DTD SVG 1.1//EN" "http://www.w3.org/Graphics/SVG/1.1/DTD/svg11.dtd">
<!-- Creator: CorelDRAW X6 -->
<svg xmlns="http://www.w3.org/2000/svg" xml:space="preserve" width="15.539mm" height="15.4977mm" version="1.1" style="shape-rendering:geometricPrecision; text-rendering:geometricPrecision; image-rendering:optimizeQuality; fill-rule:evenodd; clip-rule:evenodd"
viewBox="0 0 136 136"
 xmlns:xlink="http://www.w3.org/1999/xlink">
 <defs>
  <style type="text/css">
   <![CDATA[
    .fil0 {fill:#5F5D5D}
    .fil2 {fill:#FEFEFE}
    .fil1 {fill:#FEFEFE;fill-rule:nonzero}
   ]]>
  </style>
 </defs>
 <g id="图层_x0020_1">
  <metadata id="CorelCorpID_0Corel-Layer"/>
  <rect class="fil0" width="136" height="136" rx="14" ry="15"/>
  <path class="fil1" d="M58 77c-4,0 -8,-3 -11,-9 -3,-6 -5,-14 -5,-22l11 0 5 -5 5 5 10 0c0,8 -2,16 -5,22 -3,6 -7,9 -10,9zm6 -34l-6 -7 -7 7 -12 0c0,21 8,38 19,38 10,0 19,-17 19,-38l-13 0z"/>
  <path class="fil1" d="M102 31l-41 0 5 7 32 0c3,0 5,2 5,4l0 37c0,3 -2,5 -5,5l-31 0 -14 11c-2,1 -5,2 -7,0l-13 -13c0,0 0,-1 -1,-1 0,-1 0,-1 0,-2l0 -37c0,-2 3,-4 5,-4l12 0 5 -7 -19 0c-6,0 -10,5 -10,10l0 40c0,1 0,2 0,3 0,2 1,3 2,4l14 14c2,1 4,2 6,2 3,0 5,-1 7,-2l14 -11 34 0c5,0 10,-5 10,-10l0 -40c0,-5 -5,-10 -10,-10z"/>
  <path class="fil2" d="M53 67l0 2c0,0 0,0 0,0l8 0c0,0 0,0 0,0 0,-1 0,-2 0,-2 0,-1 0,-1 0,-1l-8 0c0,0 0,0 0,1zm3 -9c0,1 0,1 0,1 -3,0 -7,0 -10,0 0,0 0,0 0,0l0 2c0,0 0,0 0,0l23 0c0,0 0,0 0,0l0 -2c0,0 -4,0 -5,0l-5 0c0,0 0,0 0,0l0 -8c0,-1 0,-1 0,-1l-3 0 0 8zm-6 5l0 2c0,0 0,0 0,0l15 0c0,0 0,0 0,0 0,0 0,-2 0,-2 0,0 0,0 0,0l-15 0c0,0 0,0 0,0z"/>
 </g>
</svg>
