<?xml version="1.0" encoding="UTF-8"?>
<!DOCTYPE svg PUBLIC "-//W3C//DTD SVG 1.1//EN" "http://www.w3.org/Graphics/SVG/1.1/DTD/svg11.dtd">
<!-- Creator: CorelDRAW X6 -->
<svg xmlns="http://www.w3.org/2000/svg" xml:space="preserve" width="15.539mm" height="15.4977mm" version="1.1" style="shape-rendering:geometricPrecision; text-rendering:geometricPrecision; image-rendering:optimizeQuality; fill-rule:evenodd; clip-rule:evenodd"
viewBox="0 0 1024 1021"
 xmlns:xlink="http://www.w3.org/1999/xlink">
 <defs>
  <style type="text/css">
   <![CDATA[
    .fil3 {fill:none}
    .fil0 {fill:#5F5D5D}
    .fil2 {fill:#FEFEFE}
    .fil1 {fill:#FEFEFE;fill-rule:nonzero}
   ]]>
  </style>
 </defs>
 <g id="图层_x0020_1">
  <metadata id="CorelCorpID_0Corel-Layer"/>
  <rect class="fil0" width="1024" height="1021" rx="109" ry="110"/>
  <g id="_438451064">
   <path class="fil1" d="M376 706l-36 0c-1,-19 -12,-29 -31,-30 -19,1 -30,21 -31,59 1,37 12,57 31,58 20,-1 30,-11 31,-30l36 0c-2,35 -24,53 -67,53 -44,-1 -66,-28 -67,-81 2,-54 24,-82 67,-83 43,0 65,19 67,54zm-126 -32c-3,20 -14,32 -33,33 -20,-1 -31,-13 -33,-33 1,-20 12,-31 33,-33 20,1 31,12 33,33zm-51 0c2,11 7,17 18,18 11,-1 17,-7 18,-18 -1,-11 -7,-17 -18,-18 -11,1 -17,7 -18,18z"/>
   <path class="fil1" d="M802 642l-84 172 -17 0 84 -172 17 0zm-100 14c24,0 36,14 36,43 0,28 -12,42 -36,42 -24,0 -36,-14 -36,-42 0,-29 12,-43 36,-43zm-12 43c0,16 4,24 12,23 8,0 12,-8 12,-23 0,-15 -4,-23 -12,-23 -8,-1 -12,6 -12,23zm113 33c25,0 37,14 37,42 0,27 -12,41 -37,41 -24,0 -37,-14 -37,-41 0,-28 13,-42 37,-42zm-13 42c0,16 5,24 13,22 8,0 12,-7 13,-22 0,-16 -5,-23 -13,-23 -8,-2 -13,6 -13,23z"/>
   <path class="fil2" d="M326 231l98 0 0 11 0 11 -98 0 0 -11 0 -3 0 -8zm0 349l98 0 0 11 0 11 -98 0 0 -11 0 -3 0 -8zm0 -58l98 0 0 11 0 11 -98 0 0 -11 0 -3 0 -8zm0 -59l98 0 0 12 0 11 -98 0 0 -11 0 -3 0 -9zm0 -58l98 0 0 11 0 12 -98 0 0 -12 0 -3 0 -8zm0 -58l98 0 0 11 0 11 -98 0 0 -11 0 -3 0 -8zm0 -58l98 0 0 11 0 11 -98 0 0 -11 0 -3 0 -8z"/>
   <path class="fil3" d="M668 300c78,-70 69,-63 69,-63m-71 296l73 0m-73 -58l73 0m-73 -59l73 0m-73 -62l73 0m-73 -56l73 0m-71 293c78,-70 69,-63 69,-63m-69 5c78,-71 69,-63 69,-63m-69 5c78,-71 69,-63 69,-63m-69 4c78,-70 69,-62 69,-62m-69 4c78,-70 69,-62 69,-62"/>
   <polygon class="fil1" points="661,292 666,287 666,286 666,286 730,229 745,246 700,286 739,286 739,298 745,304 702,343 739,343 739,356 745,362 697,405 728,405 730,404 731,405 739,405 739,414 745,420 739,425 739,428 737,428 697,463 728,463 730,462 731,463 739,463 739,472 745,479 739,483 739,486 737,486 697,522 728,522 730,520 731,522 739,522 739,531 745,537 739,542 739,544 737,544 676,599 661,583 704,544 666,544 666,530 661,524 704,486 666,486 666,472 661,466 704,428 666,428 666,414 661,408 708,365 677,365 676,366 674,365 666,365 666,356 661,350 666,345 666,343 668,343 706,309 666,309 666,297 "/>
   <path class="fil2" d="M584 650c34,18 57,52 57,92 0,57 -49,104 -109,104 -60,0 -108,-47 -108,-104 0,-40 23,-74 57,-92l-2 0 0 -433c0,0 17,-40 56,-42 39,-1 52,38 52,38l-1 437 -2 0zm-33 23c31,8 55,36 55,69 0,39 -33,70 -74,70 -40,0 -73,-31 -73,-70 0,-33 23,-60 54,-68l0 -390c0,0 6,-20 20,-21 14,-1 18,19 18,19l0 391z"/>
   <circle class="fil2" cx="534" cy="743" r="40"/>
  </g>
 </g>
</svg>
