<?xml version="1.0" encoding="UTF-8"?>
<!DOCTYPE svg PUBLIC "-//W3C//DTD SVG 1.1//EN" "http://www.w3.org/Graphics/SVG/1.1/DTD/svg11.dtd">
<!-- Creator: CorelDRAW X6 -->
<svg xmlns="http://www.w3.org/2000/svg" xml:space="preserve" width="15.539mm" height="15.4977mm" version="1.1" style="shape-rendering:geometricPrecision; text-rendering:geometricPrecision; image-rendering:optimizeQuality; fill-rule:evenodd; clip-rule:evenodd"
viewBox="0 0 431 430"
 xmlns:xlink="http://www.w3.org/1999/xlink">
 <defs>
  <style type="text/css">
   <![CDATA[
    .fil0 {fill:#5F5D5D}
    .fil1 {fill:#FEFEFE}
    .fil2 {fill:#FEFEFE;fill-rule:nonzero}
   ]]>
  </style>
 </defs>
 <g id="图层_x0020_1">
  <metadata id="CorelCorpID_0Corel-Layer"/>
  <rect class="fil0" width="431" height="430" rx="46" ry="46"/>
  <g id="_438454040">
   <path class="fil1" d="M122 265l12 -5c0,-17 6,-31 17,-43 -13,-4 -26,-2 -38,3 -3,17 -1,32 9,45z"/>
   <path class="fil1" d="M114 282l4 -12c-11,-12 -18,-26 -18,-43 -12,7 -19,18 -25,30 10,13 22,23 39,25z"/>
   <path class="fil1" d="M120 300l-6 -12c-16,0 -31,-6 -43,-17 -3,13 -1,26 4,38 16,3 32,1 45,-9z"/>
   <path class="fil1" d="M137 308l-13 -4c-11,11 -26,18 -42,18 6,12 17,20 29,25 14,-10 24,-22 26,-39z"/>
   <path class="fil1" d="M154 302l-12 6c0,16 -5,31 -16,43 13,4 25,1 37,-3 3,-17 2,-32 -9,-46z"/>
   <path class="fil1" d="M163 285l-5 13c12,12 18,26 19,42 11,-6 19,-17 24,-29 -10,-13 -22,-23 -38,-26z"/>
   <path class="fil1" d="M157 268l5 12c17,0 31,5 44,17 3,-13 1,-26 -4,-38 -16,-3 -32,-2 -45,9z"/>
   <path class="fil1" d="M140 259l13 5c11,-12 25,-18 42,-19 -7,-11 -18,-19 -29,-24 -14,10 -24,22 -26,38z"/>
   <path class="fil1" d="M138 259c14,0 25,11 25,25 0,13 -11,24 -25,24 -13,0 -24,-11 -24,-24 0,-14 11,-25 24,-25z"/>
   <path class="fil1" d="M276 265l13 -5c0,-17 5,-31 16,-43 -13,-4 -25,-2 -37,3 -3,17 -2,32 8,45z"/>
   <path class="fil1" d="M268 282l5 -12c-12,-12 -18,-26 -19,-43 -12,7 -19,18 -24,30 9,13 21,23 38,25z"/>
   <path class="fil1" d="M274 300l-6 -12c-16,0 -30,-6 -43,-17 -3,13 -1,26 4,38 16,3 32,1 45,-9z"/>
   <path class="fil1" d="M291 308l-13 -4c-11,11 -25,18 -42,18 7,12 17,20 29,25 14,-10 24,-22 26,-39z"/>
   <path class="fil1" d="M309 302l-12 6c0,16 -6,31 -17,43 13,4 26,1 38,-3 3,-17 1,-32 -9,-46z"/>
   <path class="fil1" d="M317 285l-5 13c12,12 18,26 19,42 12,-6 19,-17 24,-29 -9,-13 -21,-23 -38,-26z"/>
   <path class="fil1" d="M311 268l6 12c16,0 30,5 43,17 3,-13 1,-26 -4,-38 -16,-3 -32,-2 -45,9z"/>
   <path class="fil1" d="M294 259l13 5c11,-12 25,-18 42,-19 -7,-11 -17,-19 -29,-24 -14,10 -24,22 -26,38z"/>
   <path class="fil1" d="M293 259c13,0 24,11 24,25 0,13 -11,24 -24,24 -14,0 -25,-11 -25,-24 0,-14 11,-25 25,-25z"/>
   <path class="fil2" d="M293 363c21,0 41,-9 56,-23 14,-14 23,-34 23,-56 0,-22 -9,-42 -23,-56 -15,-14 -35,-23 -56,-23 -2,0 -4,0 -5,0 -1,0 -3,0 -5,0l-15 2 10 -12c5,-7 9,-15 12,-23 3,-8 5,-17 5,-26 0,-22 -9,-42 -24,-56 -14,-14 -34,-23 -56,-23 -21,0 -41,9 -56,23 -14,14 -23,34 -23,56 0,9 2,18 5,26 2,8 7,16 12,23l10 12 -16 -2c-1,0 -3,0 -4,0 -2,0 -3,0 -5,0 -22,0 -41,9 -56,23 -14,14 -23,34 -23,56 0,22 9,42 23,56 15,14 34,23 56,23 16,0 30,-4 42,-12 13,-8 23,-19 30,-33l5 -12 6 12c7,14 17,25 30,33 12,8 26,12 42,12zm65 -14c-17,17 -40,27 -65,27 -18,0 -35,-5 -49,-14 -12,-7 -21,-17 -29,-28 -7,11 -17,21 -28,28 -14,9 -31,14 -49,14 -25,0 -48,-10 -65,-27 -17,-17 -27,-40 -27,-65 0,-26 10,-49 27,-65 16,-16 38,-27 63,-27 -3,-5 -6,-11 -8,-16 -3,-10 -5,-20 -5,-30 0,-26 11,-49 27,-65 17,-17 40,-27 65,-27 26,0 49,10 66,27 16,16 27,39 27,65 0,10 -2,20 -5,30 -2,5 -5,11 -8,16 25,0 47,11 63,27 16,16 27,39 27,65 0,25 -11,48 -27,65zm-128 -114c-1,2 -3,5 -5,7 -1,2 -3,5 -4,7l-6 13 -5 -13c-2,-2 -3,-5 -5,-7 -1,-2 -3,-5 -5,-7l-9 -12 15 1c2,1 3,1 5,1 1,0 3,0 4,0 2,0 4,0 5,0 1,0 3,0 5,-1l15 -1 -10 12z"/>
   <path class="fil1" d="M199 127l12 -5c0,-17 6,-31 17,-43 -13,-4 -26,-2 -38,3 -2,16 -1,32 9,45z"/>
   <path class="fil1" d="M191 144l5 -12c-12,-12 -18,-26 -19,-43 -12,7 -19,18 -24,29 9,14 21,24 38,26z"/>
   <path class="fil1" d="M197 162l-6 -12c-16,0 -30,-6 -43,-17 -3,13 -1,26 4,38 16,3 32,1 45,-9z"/>
   <path class="fil1" d="M214 170l-13 -4c-11,11 -25,18 -42,18 7,12 17,19 29,25 14,-10 24,-22 26,-39z"/>
   <path class="fil1" d="M232 164l-13 6c0,16 -5,31 -16,43 13,4 26,1 37,-3 3,-17 2,-32 -8,-46z"/>
   <path class="fil1" d="M240 147l-5 13c12,12 18,26 19,42 12,-6 19,-17 24,-29 -9,-13 -21,-24 -38,-26z"/>
   <path class="fil1" d="M234 130l6 12c16,0 30,5 43,17 3,-13 1,-26 -4,-38 -16,-3 -32,-2 -45,9z"/>
   <path class="fil1" d="M217 121l13 5c11,-12 25,-18 42,-19 -7,-11 -17,-19 -29,-24 -14,10 -24,22 -26,38z"/>
   <path class="fil1" d="M215 121c14,0 25,11 25,25 0,13 -11,24 -25,24 -13,0 -24,-11 -24,-24 0,-14 11,-25 24,-25z"/>
  </g>
 </g>
</svg>
