<?xml version="1.0" encoding="UTF-8"?>
<!DOCTYPE svg PUBLIC "-//W3C//DTD SVG 1.1//EN" "http://www.w3.org/Graphics/SVG/1.1/DTD/svg11.dtd">
<!-- Creator: CorelDRAW X6 -->
<svg xmlns="http://www.w3.org/2000/svg" xml:space="preserve" width="15.539mm" height="15.4977mm" version="1.1" style="shape-rendering:geometricPrecision; text-rendering:geometricPrecision; image-rendering:optimizeQuality; fill-rule:evenodd; clip-rule:evenodd"
viewBox="0 0 251 250"
 xmlns:xlink="http://www.w3.org/1999/xlink">
 <defs>
  <style type="text/css">
   <![CDATA[
    .fil0 {fill:#5F5D5D}
    .fil1 {fill:#FEFEFE}
    .fil2 {fill:#FEFEFE;fill-rule:nonzero}
   ]]>
  </style>
 </defs>
 <g id="图层_x0020_1">
  <metadata id="CorelCorpID_0Corel-Layer"/>
  <rect class="fil0" width="251" height="250" rx="27" ry="27"/>
  <g id="_438453584">
   <path class="fil1" d="M73 161l3 -9c-8,-8 -12,-17 -13,-28 -8,4 -13,11 -16,19 6,9 14,16 26,18z"/>
   <path class="fil1" d="M77 172l-4 -8c-11,0 -21,-3 -29,-11 -2,9 -1,17 2,25 11,2 22,1 31,-6z"/>
   <path class="fil1" d="M88 178l-9 -3c-7,8 -17,12 -28,12 5,8 12,13 20,17 9,-7 15,-15 17,-26z"/>
   <path class="fil1" d="M100 174l-8 4c0,11 -4,20 -12,29 9,2 18,0 26,-3 2,-11 1,-21 -6,-30z"/>
   <path class="fil1" d="M105 163l-3 8c8,8 12,17 13,29 7,-5 12,-12 16,-20 -7,-9 -15,-16 -26,-17z"/>
   <path class="fil1" d="M101 151l4 8c11,0 21,4 29,11 2,-9 1,-17 -2,-25 -11,-2 -22,-1 -31,6z"/>
   <path class="fil1" d="M90 145l8 3c8,-7 17,-12 29,-12 -5,-8 -12,-13 -20,-16 -9,6 -16,14 -17,25z"/>
   <path class="fil1" d="M78 149l8 -3c0,-11 4,-21 11,-29 -8,-3 -17,-1 -25,2 -2,11 -1,21 6,30z"/>
   <path class="fil1" d="M77 150c7,-6 17,-6 23,0 7,6 7,17 0,23 -6,7 -16,7 -23,0 -6,-6 -6,-17 0,-23z"/>
   <path class="fil1" d="M146 87l3 -8c-8,-8 -12,-17 -13,-28 -8,4 -13,11 -16,19 6,9 14,16 26,17z"/>
   <path class="fil1" d="M150 99l-4 -8c-11,0 -21,-3 -29,-11 -2,9 -1,17 2,25 11,2 22,1 31,-6z"/>
   <path class="fil1" d="M161 105l-9 -3c-7,8 -17,12 -28,12 5,8 12,13 20,17 9,-7 16,-15 17,-26z"/>
   <path class="fil1" d="M173 101l-8 4c0,11 -4,20 -12,29 9,2 18,0 26,-3 2,-11 1,-21 -6,-30z"/>
   <path class="fil1" d="M178 90l-3 8c8,8 12,17 13,28 8,-4 13,-11 16,-19 -6,-9 -14,-16 -26,-17z"/>
   <path class="fil1" d="M174 78l4 8c11,0 21,3 29,11 2,-9 1,-17 -2,-25 -11,-2 -22,-1 -31,6z"/>
   <path class="fil1" d="M163 72l9 3c7,-7 17,-12 28,-12 -5,-8 -12,-13 -20,-16 -9,6 -16,14 -17,25z"/>
   <path class="fil1" d="M151 76l8 -4c0,-10 4,-20 12,-28 -9,-3 -18,-1 -26,2 -2,11 -1,21 6,30z"/>
   <path class="fil1" d="M150 77c7,-6 17,-6 24,0 6,6 6,17 0,23 -7,7 -17,7 -24,0 -6,-6 -6,-17 0,-23z"/>
   <path class="fil2" d="M199 126l0 0c11,-10 16,-24 16,-37 0,-14 -5,-27 -16,-38l0 0c-10,-10 -23,-15 -37,-15 -14,0 -27,5 -37,15 -8,8 -12,16 -15,26 -2,9 -1,20 2,29l3 9 -9 -3c-9,-3 -19,-4 -29,-2 -9,2 -18,7 -25,14l0 0c-11,11 -16,24 -16,38 0,13 5,27 16,37l0 0c10,10 23,16 37,16 13,0 27,-6 37,-16 8,-7 12,-16 14,-26 3,-9 2,-19 -1,-29l-3 -9 8 3c10,4 20,4 30,2 9,-2 18,-7 25,-14zm7 6l0 0c-9,9 -19,14 -30,17 -9,2 -18,2 -27,0 2,9 2,18 0,26 -2,11 -8,22 -16,30 -13,12 -28,18 -44,18 -16,0 -32,-6 -44,-18l0 0c-12,-12 -18,-28 -18,-43 0,-16 6,-32 18,-44l0 0c9,-9 19,-14 30,-17 9,-2 18,-2 27,0 -2,-8 -2,-17 0,-26 2,-11 8,-22 16,-30 12,-12 28,-18 44,-18 16,0 32,6 44,18l0 0c12,12 18,28 18,44 0,15 -6,31 -18,43z"/>
  </g>
 </g>
</svg>
