<?xml version="1.0" encoding="UTF-8"?>
<!DOCTYPE svg PUBLIC "-//W3C//DTD SVG 1.1//EN" "http://www.w3.org/Graphics/SVG/1.1/DTD/svg11.dtd">
<!-- Creator: CorelDRAW X6 -->
<svg xmlns="http://www.w3.org/2000/svg" xml:space="preserve" width="15.539mm" height="15.4977mm" version="1.1" style="shape-rendering:geometricPrecision; text-rendering:geometricPrecision; image-rendering:optimizeQuality; fill-rule:evenodd; clip-rule:evenodd"
viewBox="0 0 167 167"
 xmlns:xlink="http://www.w3.org/1999/xlink">
 <defs>
  <style type="text/css">
   <![CDATA[
    .fil0 {fill:#5F5D5D}
    .fil1 {fill:#FEFEFE}
    .fil2 {fill:#FEFEFE;fill-rule:nonzero}
   ]]>
  </style>
 </defs>
 <g id="图层_x0020_1">
  <metadata id="CorelCorpID_0Corel-Layer"/>
  <rect class="fil0" width="167" height="167" rx="18" ry="18"/>
  <g id="_438456680">
   <polygon class="fil1" points="68,31 127,28 91,64 127,62 57,128 78,80 41,83 "/>
   <path class="fil2" d="M57 139c-6,0 -11,-5 -11,-11 0,-7 5,-12 11,-12 7,0 12,5 12,12 0,6 -5,11 -12,11zm0 -28c-9,0 -17,7 -17,17 0,9 8,17 17,17 10,0 17,-8 17,-17 0,-10 -7,-17 -17,-17z"/>
  </g>
 </g>
</svg>
